<svg version="1.1" xmlns="http://www.w3.org/2000/svg" xmlns:xlink="http://www.w3.org/1999/xlink" width="124.6801" height="131.26165" viewBox="0,0,124.6801,131.26165"><g transform="translate(-156.8809,-122.996)"><g data-paper-data="{&quot;isPaintingLayer&quot;:true}" fill="none" fill-rule="nonzero" stroke="none" stroke-width="none" stroke-linecap="none" stroke-linejoin="miter" stroke-miterlimit="10" stroke-dasharray="" stroke-dashoffset="0" font-family="none" font-weight="none" font-size="none" text-anchor="none" style="mix-blend-mode: normal"><path d="M212.409,225.573c-3.82,0.301 -7.662,0.227 -11.467,-0.223c0,-3.566 10.854,-37.28 10.854,-37.28l16.806,0.789c0,0 -16.124,36.411 -16.193,36.714z" id="Shape" fill="#86caf0" stroke="none" stroke-width="1" stroke-linecap="butt"/><g id="Group-7" stroke="none" stroke-width="1" stroke-linecap="butt"><path d="M201.045,225.544h12.815c-3.842,9.435 -11.56,28.086 -13.113,28.526c-1.153,-0.017 -8.791,0.554 -9.072,-0.36c0.128,-0.351 0.379,-0.646 0.706,-0.829c0.791,0.383 1.588,0.178 2.419,0c1.382,-4.588 5.448,-23.051 6.245,-27.337z" id="Shape" fill="#000000"/><path d="M210.345,238.441h-14.186l2.151,-9.262h15.854l-3.819,9.262" id="Shape" fill="#f0f0f0"/><path d="M198.356,227.03l0.59,-3.989h17.798l-1.64,3.989h-16.748" id="Shape" fill="#f0f0f0"/></g><path d="M279.33,223.881h-9.455c-0.757,-3.56 -3.83,-16.702 -14.151,-21.274c-5.843,-2.588 -26.113,-4.971 -32.684,-4.571l-0.304,-10.423c2.689,-0.017 27.529,0.028 31.766,0.24c2.151,0.108 7.426,1.686 9.392,2.663c1.6,0.794 3.085,2.314 4.284,3.611c3.971,4.405 7.025,9.552 8.985,15.143c0.602,1.029 2.144,9.303 2.167,14.611z" id="Shape" fill="#86caf0" stroke="none" stroke-width="1" stroke-linecap="butt"/><g id="Group-6" stroke="none" stroke-width="1" stroke-linecap="butt"><path d="M280.22499,225.613c-0.275,5.096 -1.594,10.082 -3.876,14.651c-1.118,2.286 -2.151,4.612 -3.297,6.857c-0.924,1.795 -2.638,3.686 -3.039,5.669c1.295,0.857 2.93,-0.063 4.162,0.72l-0.498,0.731c-1.514,-0.057 -8.699,0.406 -9.696,-1.308c3.205,-8.549 6.473,-17.96 5.498,-27.297z" id="Shape" fill="#000000"/><path d="M267.541,238.384l1.055,-9.268h12.965l-2.97,9.268h-11.05" id="Shape" fill="#f0f0f0"/><path d="M280.993,226.973h-12.683l-1.073,-3.989h13.469l0.287,3.989" id="Shape" fill="#f0f0f0"/></g><g id="Group-5" stroke="none" stroke-width="1" stroke-linecap="butt"><path d="M209.64,180.167c0,0 -10.786,12.469 -17.093,23.046c-6.657,11.177 -10.43,19.366 -11.244,20.954c-1.348,-0.177 -4.238,-3.503 -4.014,-4.674c3.664,-19.423 26.21,-46.566 26.21,-46.566z" id="Shape" fill="#f0d7a1"/><path d="M229.388,164.956c-3.338,3.16 -16.635,13.554 -21.113,19.16c-2.075,-1.549 -7.133,-5.892 -8.635,-8.086c1.319,-3.257 12.873,-13.817 16.227,-16.103c1.112,-0.76 3.893,-3.291 10.894,-5.097z" id="Shape" fill="#f0f0f0"/></g><g id="Group-4" stroke="none" stroke-width="1" stroke-linecap="butt"><path d="M185.299,239.356c-0.091,0.183 -1.353,1.891 -7.351,3.903c-5.997,2.011 -9.839,1.531 -9.839,1.531l-1.68,-17.554c0,0 18.05,-4.195 18.131,-3.343c0.046,0.52 0.625,15.006 0.739,15.463z" id="Shape" fill="#6e1e3c"/><path d="M184.737,242.379c-0.69,-0.011 -1.332,-0.356 -1.72,-0.926c-0.494,-1.594 -0.665,-3.271 -0.504,-4.932c0.246,-3.205 -1.032,-6.291 -3.441,-7.062c-5.642,1.142 -5.212,4.657 -6.554,9.714c-0.567,2.114 -0.43,5.926 -2.339,7.32c-1.789,1.308 -5.207,0.571 -7.007,-0.36c-10.55,-5.4 -5.929,-17.577 0.069,-24c5.998,-6.423 12.878,-7.594 12.878,-7.594c0,0 9.335,2.32 11.847,6.085c0.567,2.835 0.212,19.366 -3.229,21.755z" id="Shape" fill="#4b962e"/><path d="M166.26299,218.001c1.773,-1.147 3.679,-2.076 5.676,-2.765c2.54,0.925 5.321,1.685 7.615,3.154c0.172,0.36 0.332,0.686 0.447,0.931c0.155,1.143 -0.441,1.715 -1.147,2.286c-4.386,1.554 -9.191,-0.96 -12.591,-3.606z" id="Shape" fill="#6e1e3c"/></g><path d="M246.779,156.944c0.258,0.377 10.338,17.355 15.166,30.137c-13.234,0.183 -49.106,0.72 -49.404,0.72l14.335,-31.428z" id="Shape" fill="#353ef0" stroke="none" stroke-width="1" stroke-linecap="butt"/><g id="Group-3" stroke="none" stroke-width="1" stroke-linecap="butt"><path d="M266.78999,191.619h-57.838l1.909,-6.28h52.277l3.652,6.28" id="Shape" fill="#be0a3c"/><path d="M233.952,184.024h7.454v8.48h-7.454v-8.48" id="Rectangle-path" fill="#ffc800"/><path d="M245.712,184.024h3.727v8.48h-3.727v-8.48" id="Rectangle-path" fill="#3c3c32"/><path d="M254.634,184.024h3.727v8.48h-3.727v-8.48" id="Rectangle-path" fill="#3c3c32"/><path d="M226.607,184.024h3.727v8.48h-3.727v-8.48" id="Rectangle-path" fill="#3c3c32"/><path d="M215.689,184.024h3.727v8.48h-3.727v-8.48" id="Rectangle-path" fill="#3c3c32"/></g><g id="Group-2" stroke="none" stroke-width="1" stroke-linecap="butt"><path d="M184.256,175.081c0.608,1.572 1.221,3.138 1.823,4.709c0.086,0.223 1.932,4.44 2.053,4.971c-0.981,-0.822 -3.205,-2.131 -3.957,-2.857c-0.281,-1.097 -0.871,-5.554 -1.146,-6.697c-0.161,-0.395 -0.063,-0.848 0.246,-1.143c0.458,0.183 0.815,0.554 0.981,1.017z" id="Shape" fill="#824600"/><path d="M231.245,206.39c-3.182,0.63 -6.45,0.697 -9.656,0.2c-19.443,-2.646 -29.375,-9.189 -33.526,-11.789c-9.1,-5.697 -16.445,-15.92 -15.625,-18.457c0.82,-2.537 3.796,6.743 5.407,5.966c1.611,-0.777 -3.348,-8.263 -2.173,-9.274c1.175,-1.012 2.615,6.285 5.258,8.011c0.197,0.006 0.387,-0.068 0.528,-0.204c0.141,-0.137 0.219,-0.326 0.217,-0.522c-0.487,-1.28 -2.918,-6.605 -1.25,-7.508c1.153,1.451 1.675,3.366 2.747,4.88c1.445,2.051 3.549,3.651 5.459,5.257c3.199,2.691 6.192,5.377 9.776,7.566c4.668,2.857 15.47,7.314 28.991,6.068c3.726,-0.412 7.397,-1.218 10.952,-2.405l1.273,9.971c-2.749,0.902 -5.545,1.65 -8.378,2.24z" id="Shape" fill="#f0d7a1"/><path d="M238.292,206.984c-0.269,-0.348 -6.192,-10.16 -7.568,-12.92c3.383,-2.383 7.356,-3.863 10.487,-6.64c2.947,-2.583 4.908,-6.783 5.786,-10.583c0.516,-2.268 0.716,-4.72 1.089,-7.005c0.224,-1.355 0.361,-11.337 1.216,-12.452c0,0 12.236,4.44 11.863,13.68c-0.373,9.24 -0.728,10.537 -2.448,15.149c-3.32,8.891 -11.417,16.32 -19.719,20.491c-0.212,0.103 -0.442,0.177 -0.706,0.28z" id="Shape" fill="#f0f0f0"/></g><g id="Group" stroke="none" stroke-width="1" stroke-linecap="butt"><path d="M240.262,124.938l-0.25,1.015c-0.523,0.302 -1.062,0.513 -1.61,0.629c-0.448,0.004 -0.89,-0.19 -1.283,-0.563c-0.367,-0.367 -0.539,-1.121 -0.416,-1.821c0.282,-0.926 0.82,-0.948 1.372,-1.202c0.853,0.32 1.738,0.265 2.187,1.942z" id="Shape" fill="#c8bea0"/><path d="M239.674,155.973c-20.693,1.537 -20.693,-12 -20.693,-12l11.083,-7.874l28.572,4.788l1.445,6.36c0,0 0.287,7.189 -20.407,8.726z" id="Shape" fill="#e6781e"/><path d="M272.43199,144.653c-0.143,10.651 -22.253,9.646 -25.177,9.948c-0.402,-0.068 11.955,-1.2 11.381,-13.714c3.252,-0.223 13.859,-0.994 13.796,3.766z" id="Shape" fill="#d90404"/><path d="M217.174,148.893c1.812,-3.109 3.395,-3.412 6.262,-0.617c0.47,2.543 2.402,6.388 2.156,8.897c-2.856,1.377 -10.981,-3.886 -8.418,-8.28z" id="Shape" fill="#f0d7a1"/><path d="M252.507,155.499c-0.247,-2.509 0.361,-6.892 0.831,-9.429c2.839,-2.794 6.881,-3.08 7.581,1.143c0.762,5.023 -5.585,9.657 -8.412,8.286z" id="Shape" fill="#f0d7a1"/><path d="M254.686,153.699c-1.508,6.731 -3.515,14.137 -14.857,14.788c-11.342,0.652 -15.287,-6.268 -15.929,-8.52c-0.952,-3.343 -2.465,-16.246 -2.03,-18.148c2.214,-1.018 28.097,-2.852 33.991,-2.223c0.195,4.731 -0.2,9.468 -1.175,14.103z" id="Shape" fill="#f0d7a1"/><path d="M239.302,148.859l1.227,0.462c0.347,0.624 0.387,1.372 0.109,2.029c-0.121,0.371 -0.276,0.754 -0.396,1.143c-0.413,1.348 -1.227,1.846 -2.643,1.628c-0.549,-0.013 -1.02,-0.393 -1.147,-0.925c0.139,-1.333 0.528,-2.628 1.147,-3.817c0.487,-0.371 1.091,-0.555 1.703,-0.52z" id="Shape" fill="#824600"/><path d="M237.897,160.468c0.206,0.498 0.114,0.845 -0.367,1.068c-0.734,-0.288 -1.52,-0.584 -2.294,-0.916c-0.883,-0.383 -1.76,-0.794 -2.632,-1.22c-0.198,-0.117 -0.376,-0.284 -0.521,-0.49c-0.069,-0.08 -0.064,-0.253 -0.109,-0.469l0.625,-0.491c1.559,1.602 3.406,2.158 5.298,2.518z" id="Shape" fill="#000000"/><path d="M232.012,150.576c0.074,-0.235 0.356,-0.444 0.776,-0.573c0.419,-0.129 0.935,-0.166 1.416,-0.101c0.859,0.479 1.077,1.149 0.561,1.73c-0.374,0.642 -0.334,1.411 -2.178,1.825c-1.751,-0.973 -1.109,-1.94 -0.575,-2.881z" id="Shape" fill="#000000"/><path d="M249.656,152.58c-0.127,0.671 -1.076,1.221 -2.341,1.356c-0.904,-0.31 -1.207,-0.929 -0.699,-1.428c0.456,-0.738 0.334,-1.65 2.112,-2.158c1.748,0.69 1.231,1.492 0.928,2.23z" id="Shape" fill="#000000"/><path d="M256.33099,136.836c0,0 0.568,1.245 0.344,5.788c-0.247,3.291 -0.781,6.555 -1.594,9.755l-21.404,-12.366z" id="Shape" fill="#000000"/><path d="M223.654,140.921l14.575,-1.474l5.121,9.074l-19.696,-7.6" id="Shape" fill="#000000"/><path d="M218.981,143.973c0.751,-4.172 1.771,-8.532 4.065,-12.172c2.821,-4.491 8.44,-6.771 13.446,-7.714c5.006,-0.943 10.596,-0.577 14.702,2.783c2.145,1.636 3.882,3.744 5.074,6.16c0.992,2.143 2.604,5.451 2.368,7.857z" id="Shape" fill="#d9d9d9"/></g><path d="M248.85575,136.62101l-14.50683,1.0826l8.01123,-9.52687l1.94868,0.43304l-1.51564,0.64956l-5.413,6.71211l9.95991,-0.86608z" data-paper-data="{&quot;origPos&quot;:null}" fill="#4ab957" stroke="#000000" stroke-width="0.5" stroke-linecap="round"/></g></g></svg>