<svg version="1.1" xmlns="http://www.w3.org/2000/svg" xmlns:xlink="http://www.w3.org/1999/xlink" width="84.29418" height="157.37782" viewBox="0,0,84.29418,157.37782"><g transform="translate(-198.18179,-97.10344)"><g data-paper-data="{&quot;isPaintingLayer&quot;:true}" fill="none" fill-rule="none" stroke="none" stroke-width="none" stroke-linecap="none" stroke-linejoin="miter" stroke-miterlimit="10" stroke-dasharray="" stroke-dashoffset="0" font-family="none" font-weight="none" font-size="none" text-anchor="none" style="mix-blend-mode: normal"><path d="M269.296,229.025l-9.425,-0.423l-15.855,-36.393c0,0 16.063,-5.252 17.861,-4.476c0.636,1.964 7.419,41.292 7.419,41.292z" id="Shape" fill="#86caf0" fill-rule="evenodd" stroke="none" stroke-width="1" stroke-linecap="butt"/><g id="Group-7" fill-rule="evenodd" stroke="none" stroke-width="1" stroke-linecap="butt"><path d="M277.489,254.092c-1.462,0.411 -9.558,0.114 -9.558,0.114c0,0 -6.065,-19.535 -10.2,-28.355h12.536c0,0 3.614,25.216 4.626,27.168c0.872,0.082 1.738,0.208 2.596,0.377z" id="Shape" fill="#000000"/><path d="M261.391,238.707l-3.856,-9.254h14.536l1.382,9.254h-12.062" id="Shape" fill="#ffffff"/><path d="M271.516,227.307h-14.536l-1.654,-3.985h15.595l0.595,3.985" id="Shape" fill="#ffffff"/></g><path d="M221.285,228.391c-3.868,0.291 -7.095,-0.81 -10.928,-1.267c0,-3.585 5.568,-31.741 5.568,-31.741l21.447,-3.18c0,0 -16.052,35.886 -16.087,36.188z" id="Shape" fill="#86caf0" fill-rule="evenodd" stroke="none" stroke-width="1" stroke-linecap="butt"/><g id="Group-6" fill-rule="evenodd" stroke="none" stroke-width="1" stroke-linecap="butt"><path d="M223.546,225.822c0,0 -3.469,8.609 -5.204,12.839c-1.289,3.1 -5.21,15.089 -7.199,15.66c-1.162,-0.017 -8.864,0.553 -9.147,-0.36c0.129,-0.351 0.381,-0.645 0.711,-0.828c0.798,0.383 1.602,0.177 2.44,0c1.393,-4.584 2.602,-23.029 3.406,-27.282z" id="Shape" fill="#000000"/><path d="M219.088,238.707h-12.571l0.434,-9.254h15.988l-3.851,9.254" id="Shape" fill="#ffffff"/><path d="M206.997,227.307l0.596,-3.985h17.948l-1.654,3.985h-16.89" id="Shape" fill="#ffffff"/></g><path d="M261.478,185.084c0.544,2.832 1.804,13.616 2.383,16.47l-48.45,-2.061c0.566,-2.843 1.335,-10.995 1.983,-13.821z" id="Shape" fill="#3c3c32" fill-rule="evenodd" stroke="none" stroke-width="1" stroke-linecap="butt"/><path d="M215.121,193.784c1.579,-6.793 3.823,-18.901 5.262,-25.724c0.677,-3.117 1.51,-6.182 2.313,-9.265c0.677,-2.58 0.966,-6.154 2.273,-8.506l30.738,-0.571c0.92,2.187 0.955,2.9 1.388,5.184c0.891,4.727 1.77,9.457 2.637,14.192c1.156,6.462 3.388,18.165 4.626,24.616z" id="Shape" fill="#353ef0" fill-rule="evenodd" stroke="none" stroke-width="1" stroke-linecap="butt"/><g id="Group-5" fill-rule="evenodd" stroke="none" stroke-width="1" stroke-linecap="butt"><path d="M213.028,190.576h52.718v6.274h-52.718z" id="Rectangle-path" fill="#960909"/><path d="M236.314,189.263h7.517v8.472h-7.517z" id="Rectangle-path" fill="#ffc800"/><path d="M248.173,189.263h3.759v8.472h-3.759z" id="Rectangle-path" fill="#3c3c32"/><path d="M257.17,189.263h3.759v8.472h-3.759z" id="Rectangle-path" fill="#3c3c32"/><path d="M228.906,189.263h3.759v8.472h-3.759z" id="Rectangle-path" fill="#3c3c32"/><path d="M217.897,189.263h3.758v8.472h-3.758z" id="Rectangle-path" fill="#3c3c32"/></g><g data-paper-data="{&quot;origPos&quot;:null}" id="Group-4" fill-rule="evenodd" stroke="none" stroke-width="1" stroke-linecap="butt"><path d="M243.28072,97.10817c0.509,0.598 1.041,1.103 1.041,2.7c-1.191,0.299 -3.123,1.551 -4.198,0.402c-0.237,-2.734 2.33,-3.159 3.157,-3.102z" id="Shape" fill="#3c3c32"/><path d="M242.48872,133.84817c-22.921,1.712 -22.921,-13.131 -22.921,-13.131l12.276,-8.637l31.646,5.252l1.596,6.976c0,0 0.324,7.827 -22.597,9.54z" id="Shape" fill="#e6781e"/><path d="M278.76671,121.46517c-0.133,11.686 -24.65,10.584 -27.888,10.921c-0.44,-0.102 13.23,-1.341 12.611,-15.077c3.597,-0.239 15.346,-1.107 15.277,4.156z" id="Shape" fill="#d90404"/><path d="M217.56072,126.09517c2.012,-3.414 3.788,-3.739 6.939,-0.673c0.52,2.785 2.66,7.01 2.382,9.762c-3.157,1.507 -12.16,-4.265 -9.321,-9.089z" id="Shape" fill="#f0d7a1"/><path d="M254.92072,134.85817c-0.278,-2.751 0.393,-7.558 0.913,-10.344c3.152,-3.066 7.65,-3.374 8.402,1.256c0.908,5.514 -6.158,10.601 -9.315,9.088z" id="Shape" fill="#f0d7a1"/><path d="M259.11271,131.36417c-1.671,7.393 -5.407,14.889 -5.407,14.889c0,0 -19.104,-0.405 -26.269,-0.211c-1.266,-2.261 -1.711,-5.327 -2.422,-7.798c-1.059,-3.666 -2.735,-17.823 -2.244,-19.913c2.452,-1.119 31.109,-3.134 37.643,-2.437c0.213,5.19 -0.224,10.386 -1.301,15.47z" id="Shape" fill="#f0d7a1"/><path d="M260.93372,112.86217c0,0 0.631,1.37 0.382,6.354c-0.275,3.612 -0.867,7.193 -1.769,10.704l-23.708,-13.57z" id="Shape" fill="#000000"/><path d="M224.74272,117.34417l16.138,-1.616l5.679,9.962l-21.817,-8.346" id="Shape" fill="#000000"/><path d="M244.66272,127.38517c1.203,1.251 3.163,5.624 3.163,5.624l-11.958,0.062c0,0 2.7,-4.664 4.742,-5.748c2.046,-1.079 2.85,-1.188 4.053,0.062z" id="Shape" fill="#824600"/><path d="M219.56772,120.69517c0.832,-4.59 1.96,-9.357 4.498,-13.353c3.129,-4.933 9.35,-7.433 14.896,-8.466c5.545,-1.034 11.738,-0.634 16.283,3.054c2.399,1.946 4.302,3.979 5.62,6.759c1.099,2.341 2.885,5.983 2.625,8.62z" id="Shape" fill="#d9d9d9"/><path d="M237.68572,130.20717c-0.089,0.525 -0.906,0.949 -1.963,1.018c-1.239,-0.474 -1.225,-1.162 -1.532,-1.85c0.599,-0.571 0.334,-1.382 2.242,-1.733c1.179,0.718 1.64,1.661 1.253,2.565z" id="Shape" fill="#000000"/><path d="M253.19172,130.48917c-0.161,0.213 -0.924,0.316 -1.379,0.462c-1.996,-1.224 -2.158,-1.883 -0.852,-3.422l1.468,-0.161c1.425,0.883 1.721,2.093 0.763,3.121z" id="Shape" fill="#000000"/></g><g id="Group-3" fill-rule="evenodd" stroke="none" stroke-width="1" stroke-linecap="butt"><path d="M281.647,184.725c-0.894,2.828 -2.891,5.188 -5.551,6.559c-2.683,1.467 -7.413,1.096 -10.2,0.223c-11.461,-3.603 -17.359,-14.929 -24.008,-23.909c1.093,-1.695 6.204,-5.064 7.135,-5.635c1.544,1.707 2.596,4.202 3.915,6.103c2.671,3.859 10.119,11.201 10.408,11.418c6.511,4.927 10.171,3.996 11.374,-1.861c1.174,-5.703 -8.379,-16.128 -8.379,-16.128l8.095,-1.084c0,0 11.108,10.921 7.211,24.314z" id="Shape" fill="#f0d7a1"/><path d="M278.01,162.945c-2.602,0.891 -8.558,4.659 -8.558,4.659c-1.846,-2.744 -4.106,-5.193 -6.702,-7.262c-3.729,-2.917 -7.378,-2.98 -9.691,-3.425v-9.745c11.542,0.651 20.481,8.786 24.951,15.773z" id="Shape" fill="#f0f0f0"/></g><g id="Group-2" fill-rule="evenodd" stroke="none" stroke-width="1" stroke-linecap="butt"><path d="M236.302,171.246c0,0 -2.313,8.369 -5.782,12.354c-4.094,4.767 -9.72,10.144 -16.191,9.739c-5.522,-0.342 -15.103,-5.138 -16.08,-14.049c-0.978,-8.912 9.003,-18.091 11.316,-19.205c2.648,0.897 5.001,6.114 5.001,6.114c0,0 -5.724,3.683 -6.487,9.705c-0.764,6.023 5.377,8.929 8.552,7.799c12.056,-4.293 12.281,-14.906 12.281,-14.906z" id="Shape" fill="#f0d7a1"/><path d="M230.381,158.944c-0.307,0.359 -6.187,1.124 -10.686,4.509c-3.307,2.484 -6.696,7.222 -6.892,7.422c-0.648,0.228 -8.737,-6.925 -8.969,-7.113c0.289,-0.365 0.597,-0.714 0.926,-1.045c1.509,-1.347 2.977,-2.7 4.579,-3.996c1.602,-1.296 7.87,-5.446 9.154,-6.348c0.445,-0.32 5.198,-3.329 5.834,-3.072z" id="Shape" fill="#f0f0f0"/></g><g id="Group" fill-rule="evenodd" stroke="none" stroke-width="1" stroke-linecap="butt"><path d="M249.648,168.968c-3.406,3.283 -12.93,6.651 -12.93,6.651c0,0 -7.453,-2.957 -10.171,-3.996c-2.018,-0.782 -4.256,-5.983 -4.764,-7.633c-1.538,-4.955 -2.284,-12.542 -0.55,-14.437c2.516,-2.729 5.343,-2.09 6.939,-3.197c1.758,-1.222 2.533,-3.14 3.805,-4.796c2.394,-3.117 5.464,-3.282 9.159,-3.02c7.887,0.571 13.762,7.713 14.635,15.197c0.335,2.872 -0.416,9.779 -6.123,15.231z" id="Shape" fill="#4b962e"/><path d="M239.13,170.059c0.746,1.33 -1.521,2.785 -1.521,2.785l-11.189,-3.425c0,0 -0.347,-2.466 0.538,-3.648c1.688,-0.011 10.94,3.597 12.172,4.288z" id="Shape" fill="#6e1e3c"/><path d="M224.697,157.613c-3.626,-4.709 -1.145,-8.22 5.36,-10.087c6.505,-1.867 7.604,3.271 7.604,3.271c-0.92,4.299 -9.339,11.526 -12.964,6.816z" id="Shape" fill="#6e1e3c"/></g><path d="M219.54298,120.39861l0.21652,-1.51564l2.81476,-8.44427l3.03127,-5.19647l8.44427,-5.19648l-9.09383,20.56938z" fill="#da1010" fill-rule="nonzero" stroke="#000000" stroke-width="0.5" stroke-linecap="round"/><path d="M249.85575,111.95434l-14.50683,1.0826l8.01123,-9.52687l1.94868,0.43304l-1.51564,0.64956l-5.413,6.71211l9.95991,-0.86608z" fill="#4ab957" fill-rule="nonzero" stroke="#000000" stroke-width="0.5" stroke-linecap="round"/></g></g></svg>