<svg version="1.1" xmlns="http://www.w3.org/2000/svg" xmlns:xlink="http://www.w3.org/1999/xlink" width="100.69924" height="171.34804" viewBox="0,0,100.69924,171.34804"><g transform="translate(-165.13477,-83.16996)"><g data-paper-data="{&quot;isPaintingLayer&quot;:true}" fill="none" fill-rule="nonzero" stroke="none" stroke-width="1" stroke-linecap="butt" stroke-linejoin="miter" stroke-miterlimit="10" stroke-dasharray="" stroke-dashoffset="0" font-family="none" font-weight="none" font-size="none" text-anchor="none" style="mix-blend-mode: normal"><g id="Back-Arm"><path d="M218.93701,99.22c6.141,2.356 11.782,6.02 12.889,7.057c-0.189,2.07 -3.609,4.369 -5.055,5.596c-0.741,-1.106 -5.113,-5.871 -10.181,-8.778c-8.556,-4.913 -19.287,-8.456 -19.287,-8.926c1.257,-0.849 12.252,1.444 21.634,5.051z" id="Shape" fill="#f0d7a1"/><path d="M246.92501,115.548l-8.465,15.859l-14.932,-21.495l5.641,-7.166l17.756,12.802" id="Shape" fill="#f0f0f0"/></g><g id="Group"><path d="M203.39701,95.327c-0.115,1.989 -12.349,12.292 -17.164,17.332c-1.94,2.035 -4.04,3.91 -5.871,6.048c-2.255,2.626 -3.655,5.837 -6.238,8.21c-2.111,0.029 -5.015,0.585 -6.886,-0.625c-0.453,-1.169 -1.125,-7.98 -0.149,-18.874c0.975,-10.893 5.52,-14.299 11.305,-17.664c3.68,-2.014 7.867,-2.917 12.051,-2.597c3.248,0.269 7.696,1.083 12.952,8.17z" id="Shape" fill="#4b962e"/><path d="M165.38401,123.334c-0.43,-1.398 -0.3,-2.909 0.362,-4.214h7.368c0.123,0.155 0.209,0.335 0.253,0.527c0.317,1.312 0.125,2.695 -0.54,3.87l-0.258,0.081h-6.8z" id="Shape" fill="#6e1e3c"/></g><g id="Back-Foot"><path d="M245.45601,190.643c0.023,0.316 -0.385,2.38 -0.413,2.609c-0.104,0.946 -3.036,21.586 -3.145,22.159l-13.67,1.72c-0.011,-1.697 -0.82,-33.826 -0.746,-35.139z" id="Shape" fill="#86caf0"/><path d="M240.43401,254.26l-7.098,0.258c0,0 -6.095,-37.387 -6.445,-47.105l17.015,0.321c-1.515,9.254 -6.375,44.159 -6.008,45.374c0.835,0.169 1.685,0.251 2.536,0.247z" id="Shape" fill="#000000"/><path d="M226.87401,222.028l-1.108,-9.294h18.599l-1.36,9.294h-16.131" id="Shape" fill="#f0f0f0"/><path d="M244.81901,210.578h-19.087l-0.562,-3.996h20.108l-0.459,3.996" id="Shape" fill="#f0f0f0"/></g><path d="M238.17301,125.243l-18.271,65.687c-5.217,-5.504 -8.075,-12.023 -9.314,-19.023c-0.814,-4.938 -0.974,-9.962 -0.477,-14.941c0.706,-7.97 2.359,-15.01 6.772,-20.829c3.162,-4.169 7.896,-8.05 13.974,-9.61c0.665,-0.172 6.53,-1.1 7.316,-1.284z" id="Shape" fill="#353ef0"/><path d="M255.41801,132.215c-0.976,9.059 -3.139,18.129 -4.729,27.101c-1.819,10.429 -3.408,20.904 -5.262,31.327c-6.049,4.484 -16.114,5.831 -22.955,2.494c-3.81,-1.863 -3.563,-4.701 -3.695,-8.548c-0.104,-4.319 0.128,-8.64 0.694,-12.923c1.096,-8.646 3.845,-16.879 5.899,-25.227c1.017,-3.756 2.397,-7.404 4.121,-10.893c0.855,-1.8 1.802,-3.56 2.657,-5.366c0.66,-1.405 6.926,-13.227 8.47,-14.592z" id="Shape" fill="#86caf0"/><g id="Front-Arm"><path d="M205.77301,164.087c-4.143,-1.038 -8.137,-1.462 -12.235,-2.816c-5.629,-1.857 -13.537,-6.501 -17.514,-10.927c-4.247,-4.719 -5.658,-10.687 -6.806,-16.902c-0.522,-2.867 -0.367,-10.429 -0.367,-10.429h3.741c0,0 0.867,6.823 1.555,9.03c1.28,4.076 5.418,9.236 9.05,11.467c10.697,6.576 20.694,6.696 20.694,6.696c0,0 2.129,13.376 1.882,13.881z" id="Shape" fill="#f0d7a1"/><path d="M216.88301,148.641c-0.453,5.682 -0.224,12.046 -0.677,17.722c-0.172,0.051 -11.925,-0.78 -15.368,-1.095v-16.467c2.668,-0.005 15.735,-0.189 16.045,-0.16z" id="Shape" fill="#f0f0f0"/></g><g id="Head"><path d="M210.00801,88.504c0.465,2.454 1.062,22.263 0.333,23.094c-2.273,-0.178 -6.84,-0.436 -8.809,-1.439c-0.132,-1.502 -2.112,-22.32 3.225,-26.907c3.656,-0.585 4.643,2.041 5.251,5.252z" id="Shape" fill="#d90404"/><path d="M189.37801,113.467l11.678,-12.338c0,0 5.291,-0.619 8.126,1.869c2.835,2.488 3.317,8.084 3.5,17.452c0.155,7.729 -0.912,13.359 -3.345,16.117c-3.518,3.984 -8.861,3.067 -8.861,3.067z" id="Shape" fill="#e6781e"/><path d="M202.04901,135.242c-4.712,-0.367 -6.594,-2.448 -6.789,-2.626c-0.603,-4.753 2.347,-21.173 2.628,-26.058c1.24,-1.576 9.061,-1.943 10.846,-1.817c2.565,0.178 7.076,1.141 9.182,2.643c4.625,3.291 5.911,7.763 6.146,13.353c0.407,9.775 -8.803,13.955 -22.013,14.505z" id="Shape" fill="#f0d7a1"/><path d="M205.99701,104.661l-6.169,10.182l-2.078,-8.978c5.768,-1.875 8.247,-1.204 8.247,-1.204z" id="Shape" fill="#000000"/><path d="M198.89201,114.579l5.027,-3.887l-3.822,13.267l-1.205,-9.38" id="Shape" fill="#000000"/><path d="M178.56301,118.443c0.777,-0.464 1.453,-0.957 3.181,-0.865c0.025,1.187 0.914,3.165 -0.626,4.156c-3.018,0.069 -2.83,-2.476 -2.555,-3.291z" id="Shape" fill="#d90404"/><path d="M200.48201,139.657c0,0 -11.758,-0.516 -15.885,-5.103c-1.75,-1.972 -5.595,-8.95 -5.164,-15.48c0.407,-6.169 4.981,-11.914 7.15,-13.462c3.81,-2.717 9.584,-4.019 14.473,-4.483c0.229,6.352 -0.574,38.528 -0.574,38.528z" id="Shape" fill="#d9d9d9"/><path d="M197.00401,134.067c-1.497,-2.42 -0.355,-6.106 2.479,-6.966c2.594,-0.786 8.247,0.952 11.059,1.089c-0.844,5.389 -9.308,12.717 -13.538,5.877z" id="Shape" fill="#f0d7a1"/><path d="M214.87701,107.166c4.138,0.115 0.355,6.547 -1.291,2.867c0.026,-0.086 -1.62,-2.924 1.291,-2.867z" id="Shape" fill="#000000"/><path d="M209.80701,109.167c-0.034,0.275 -0.126,0.545 -0.206,0.889c-1.303,0.493 -2.577,1.163 -4.017,0.539l-0.436,-1.302c1.061,-1.651 0.923,-1.468 3.139,-2.138c0.703,0.132 1.288,0.618 1.549,1.284c0.005,0.243 -0.005,0.486 -0.029,0.728z" id="Shape" fill="#824600"/><path d="M206.10001,118.902l-0.769,-0.281c0.494,-1.318 0.947,-2.545 1.412,-3.767c0.056,-0.155 0.133,-0.302 0.229,-0.435c0.072,-0.15 0.201,-0.263 0.358,-0.314c0.158,-0.051 0.329,-0.035 0.474,0.044c0.924,1.095 1.131,2.655 2.365,3.538l0.034,0.688c-0.089,0.193 -0.262,0.335 -0.47,0.383c-0.208,0.049 -0.426,-0.002 -0.591,-0.137c-0.354,-1.05 -0.863,-2.041 -1.51,-2.941c-0.792,0.998 -0.883,2.207 -1.532,3.222z" id="Shape" fill="#000000"/></g><g id="Front-Foot"><path d="M263.28001,150.189l-18.272,0.126c-0.402,-2.058 -3.816,-28.323 -4.39,-34.738c2.617,-3.274 6.37,-5.59 10.651,-4.237c3.076,0.986 5.084,3.681 6.64,6.307c4.085,6.908 5.044,14.155 5.945,22.004c0.316,3.522 0.123,7.071 -0.574,10.538z" id="Shape" fill="#86caf0"/><path d="M264.474,148.245c-0.707,9.899 -1.929,19.755 -3.662,29.527c-1.641,8.967 -3.54,18.077 -4.751,27.107c1.48,0.144 3.276,-2.488 4.751,-1.869c0.08,0.387 -0.057,0.786 -0.356,1.044c-1.595,0.733 -7.064,3.915 -7.793,3.6c-1.21,-4.386 -1.348,-9.047 -1.951,-13.559c-0.665,-5.017 -5.865,-41.28 -6.438,-45.867z" id="Shape" fill="#000000"/><path d="M245.04301,163.02l-1.257,-9.294h21.02l-0.677,9.294h-19.086" id="Shape" fill="#f0f0f0"/><path d="M265.31701,151.571h-21.571l-0.626,-3.996h22.714l-0.517,3.996" id="Shape" fill="#f0f0f0" opacity="0.2"/></g></g></g></svg>